<svg xmlns="http://www.w3.org/2000/svg" xml:space="preserve" id="Layer_1" x="0" y="0" version="1.1" viewBox="0 0 323.02 154.85">
  <path id="path4" fill="#e41a23" d="M34.74 134.22c6.7 0 13.05-4.76 15.87-11.11v-9.7c-16.75 0-24.69 4.58-24.69 13.05 0 4.41 3 7.76 8.82 7.76m15.87-37.91v-5.82c0-6.7-4.06-10.05-13.75-10.05-12.87 0-20.46 5.64-22.57 5.64-3.7 0-9.17-10.41-9.17-14.11 0-6 14.11-12.17 33.68-12.17 27.86 0 37.91 12.35 37.91 29.45v33.15c0 18.16 2.12 21.87 2.12 25.57 0 4.23-15.34 5.64-19.75 5.64-5.64 0-6-7.41-7.05-12.17-1.23 2.29-9.7 13.4-25.92 13.4C7.05 154.85 0 143.57 0 129.11s5.82-32.8 50.61-32.8" class="st0"/>
  <path id="path6" fill="#e41a23" d="M87.49 92.25c0-17.64-2.12-21.34-2.12-24.86 0-4.23 15.34-5.64 19.75-5.64 5.64 0 6 7.06 7.05 11.46 5.12-6.7 14.64-13.4 26.1-13.4 12.17 0 19.75 4.23 23.28 13.4 5.29-6.7 15.34-13.4 27.16-13.4 17.63 0 25.75 8.99 25.75 28.57v59.78c0 3.71-3.17 5.64-10.58 5.64h-4.94c-7.41 0-10.58-1.94-10.58-5.64v-55.9c0-6.88-2.65-10.93-10.41-10.93-7.23 0-11.81 6.17-13.93 10.23v56.61c0 3.71-3.18 5.64-10.58 5.64h-4.94c-7.41 0-10.58-1.94-10.58-5.64v-55.9c0-6.88-2.65-10.93-10.4-10.93-7.23 0-11.81 6.17-13.93 10.23v56.61c0 3.71-3.17 5.64-10.58 5.64h-4.94c-7.41 0-10.58-1.94-10.58-5.64z" class="st0"/>
  <path id="path8" fill="#e41a23" d="M225.36 66.5c0-3.7 3.17-5.64 10.58-5.64h4.94c7.41 0 10.58 1.94 10.58 5.64v81.65c0 3.71-3.17 5.64-10.58 5.64h-4.94c-7.41 0-10.58-1.94-10.58-5.64z" class="st0"/>
  <path id="path10" fill="#63b450" d="M281.3 39.7c0 1.71-1.39 3.09-3.09 3.09s-3.09-1.38-3.09-3.09 1.38-3.09 3.09-3.09 3.09 1.38 3.09 3.09" class="st1"/>
  <path id="path12" fill="#63b450" d="M323.02 47.88c0 1.71-1.38 3.09-3.09 3.09s-3.09-1.38-3.09-3.09 1.38-3.09 3.09-3.09c1.7 0 3.09 1.38 3.09 3.09" class="st1"/>
  <path id="path14" fill="#63b450" d="M306.03 78.23c0 1.71-1.38 3.09-3.09 3.09s-3.09-1.38-3.09-3.09 1.38-3.09 3.09-3.09 3.09 1.38 3.09 3.09" class="st1"/>
  <path id="path16" fill="#63b450" d="M267.21 62.83c0 1.71-1.38 3.09-3.09 3.09-1.7 0-3.09-1.38-3.09-3.09s1.38-3.09 3.09-3.09 3.09 1.38 3.09 3.09" class="st1"/>
  <path id="path18" fill="#63b450" d="M299.85 98.25c0 1.71-1.39 3.09-3.09 3.09-1.71 0-3.09-1.38-3.09-3.09s1.39-3.09 3.09-3.09c1.71 0 3.09 1.38 3.09 3.09" class="st1"/>
  <path id="path20" fill="#63b450" d="M294.91 104.07c0 1.71-1.38 3.09-3.09 3.09s-3.09-1.38-3.09-3.09 1.38-3.09 3.09-3.09c1.7-.01 3.09 1.38 3.09 3.09" class="st1"/>
  <path id="path22" fill="#63b450" d="M247.43 49.59c0 1.71-1.39 3.09-3.09 3.09-1.71 0-3.09-1.38-3.09-3.09s1.38-3.09 3.09-3.09 3.09 1.38 3.09 3.09" class="st1"/>
  <path id="path24" fill="#63b450" d="M239.97 49.74c0 1.71-1.38 3.09-3.09 3.09s-3.09-1.38-3.09-3.09 1.38-3.09 3.09-3.09 3.09 1.38 3.09 3.09" class="st1"/>
  <path id="path26" fill="#63b450" d="M244.92 36.61c0 1.71-1.38 3.09-3.09 3.09s-3.09-1.38-3.09-3.09 1.38-3.09 3.09-3.09c1.7 0 3.09 1.38 3.09 3.09" class="st1"/>
  <path id="path28" fill="#63b450" d="M223.55 39.23c0 1.71-1.38 3.09-3.09 3.09s-3.09-1.38-3.09-3.09 1.38-3.09 3.09-3.09 3.09 1.38 3.09 3.09" class="st1"/>
  <path id="path30" fill="#63b450" d="M239 18.8c0 1.71-1.38 3.09-3.09 3.09s-3.09-1.38-3.09-3.09 1.38-3.09 3.09-3.09S239 17.09 239 18.8" class="st1"/>
  <path id="path32" fill="#63b450" d="M274.06 15.71c0 2.73-2.21 4.95-4.95 4.95-2.73 0-4.94-2.21-4.94-4.95 0-2.73 2.21-4.94 4.94-4.94 2.74-.01 4.95 2.21 4.95 4.94" class="st1"/>
  <path id="path34" fill="#63b450" d="M280.07 26.83c0 2.73-2.21 4.95-4.95 4.95-2.73 0-4.94-2.22-4.94-4.95s2.21-4.95 4.94-4.95c2.73.01 4.95 2.22 4.95 4.95" class="st1"/>
  <path id="path36" fill="#63b450" d="M281.37 50.97c0 2.73-2.21 4.95-4.95 4.95-2.73 0-4.94-2.21-4.94-4.95 0-2.73 2.21-4.95 4.94-4.95 2.74.01 4.95 2.22 4.95 4.95" class="st1"/>
  <path id="path38" fill="#63b450" d="M306.65 66.54c0 2.73-2.21 4.95-4.95 4.95-2.73 0-4.94-2.21-4.94-4.95 0-2.73 2.21-4.95 4.94-4.95 2.74 0 4.95 2.21 4.95 4.95" class="st1"/>
  <path id="path40" fill="#63b450" d="M305.93 87.5c0 2.73-2.21 4.94-4.95 4.94-2.73 0-4.94-2.21-4.94-4.94 0-2.73 2.21-4.95 4.94-4.95 2.74 0 4.95 2.22 4.95 4.95" class="st1"/>
  <path id="path42" fill="#63b450" d="M299.85 52.83c0 2.73-2.21 4.95-4.95 4.95-2.73 0-4.94-2.21-4.94-4.95 0-2.73 2.21-4.94 4.94-4.94 2.74-.01 4.95 2.21 4.95 4.94" class="st1"/>
  <path id="path44" fill="#63b450" d="M296.76 80.94c0 2.73-2.21 4.95-4.95 4.95-2.73 0-4.94-2.21-4.94-4.95 0-2.73 2.21-4.95 4.94-4.95 2.74.01 4.95 2.22 4.95 4.95" class="st1"/>
  <path id="path46" fill="#63b450" d="M279.01 98.25c0 2.73-2.21 4.95-4.95 4.95-2.73 0-4.94-2.21-4.94-4.95 0-2.73 2.22-4.95 4.94-4.95 2.74 0 4.95 2.22 4.95 4.95" class="st1"/>
  <path id="path48" fill="#63b450" d="M274.06 36.75c0 2.73-2.21 4.95-4.95 4.95-2.73 0-4.94-2.21-4.94-4.95 0-2.73 2.21-4.95 4.94-4.95 2.74.01 4.95 2.22 4.95 4.95" class="st1"/>
  <path id="path50" fill="#63b450" d="M254.23 41.55c0 2.73-2.21 4.95-4.95 4.95-2.73 0-4.94-2.21-4.94-4.95 0-2.73 2.21-4.95 4.94-4.95 2.74.01 4.95 2.22 4.95 4.95" class="st1"/>
  <path id="path52" fill="#63b450" d="M237.77 41.55c0 2.73-2.21 4.95-4.95 4.95-2.73 0-4.94-2.21-4.94-4.95 0-2.73 2.21-4.95 4.94-4.95 2.73.01 4.95 2.22 4.95 4.95" class="st1"/>
  <path id="path54" fill="#63b450" d="M246.77 26.83c0 2.73-2.22 4.95-4.95 4.95s-4.94-2.22-4.94-4.95 2.21-4.95 4.94-4.95c2.73.01 4.95 2.22 4.95 4.95" class="st1"/>
  <path id="path56" fill="#63b450" d="M237.77 9.89c0 2.73-2.21 4.94-4.95 4.94-2.73 0-4.94-2.21-4.94-4.94 0-2.73 2.21-4.95 4.94-4.95 2.73.01 4.95 2.22 4.95 4.95" class="st1"/>
  <path id="path58" fill="#63b450" d="M315.83 48.97c0 4.1-3.32 7.42-7.42 7.42-4.09 0-7.42-3.32-7.42-7.42s3.32-7.42 7.42-7.42c4.09 0 7.42 3.32 7.42 7.42" class="st1"/>
  <path id="path60" fill="#63b450" d="M270.03 48.97c0 4.1-3.32 7.42-7.42 7.42-4.09 0-7.41-3.32-7.41-7.42s3.32-7.42 7.41-7.42c4.1 0 7.42 3.32 7.42 7.42" class="st1"/>
  <path id="path62" fill="#63b450" d="M294.23 17.56c0 4.1-3.32 7.42-7.42 7.42-4.09 0-7.41-3.32-7.41-7.42s3.32-7.42 7.41-7.42c4.1 0 7.42 3.33 7.42 7.42" class="st1"/>
  <path id="path64" fill="#63b450" d="M293.85 93.3c0 4.1-3.32 7.42-7.42 7.42-4.09 0-7.41-3.32-7.41-7.42s3.32-7.42 7.41-7.42c4.09.01 7.42 3.33 7.42 7.42" class="st1"/>
  <path id="path66" fill="#63b450" d="M289.96 111.48c0 4.1-3.32 7.42-7.42 7.42-4.09 0-7.42-3.32-7.42-7.42s3.32-7.42 7.42-7.42c4.09.01 7.42 3.33 7.42 7.42" class="st1"/>
  <path id="path68" fill="#63b450" d="M280.51 82.55c0 4.1-3.32 7.42-7.42 7.42-4.09 0-7.41-3.32-7.41-7.42s3.32-7.42 7.41-7.42 7.42 3.33 7.42 7.42" class="st1"/>
  <path id="path70" fill="#63b450" d="M264.12 29.31c0 4.1-3.32 7.42-7.42 7.42-4.09 0-7.42-3.32-7.42-7.42s3.32-7.42 7.42-7.42 7.42 3.32 7.42 7.42" class="st1"/>
  <path id="path72" fill="#63b450" d="M235.29 28.72c0 4.1-3.32 7.42-7.42 7.42-4.09 0-7.41-3.32-7.41-7.42s3.32-7.42 7.41-7.42c4.1 0 7.42 3.32 7.42 7.42" class="st1"/>
  <path id="path74" fill="#63b450" d="M294.1 66.26c0 5.8-4.71 10.51-10.51 10.51s-10.5-4.7-10.5-10.51c0-5.8 4.71-10.51 10.5-10.51 5.81 0 10.51 4.71 10.51 10.51" class="st1"/>
  <path id="path76" fill="#63b450" d="M303.56 35.15c0 5.8-4.71 10.51-10.51 10.51s-10.5-4.71-10.5-10.51 4.7-10.51 10.5-10.51 10.51 4.71 10.51 10.51" class="st1"/>
  <path id="path78" fill="#63b450" d="M259.8 10.51c0 5.8-4.71 10.51-10.51 10.51s-10.5-4.71-10.5-10.51S243.5 0 249.29 0c5.8 0 10.51 4.71 10.51 10.51" class="st1"/>
  <path id="path80" fill="#63b450" d="M287.31 52.05c0 1.02-.83 1.85-1.85 1.85s-1.85-.83-1.85-1.85.83-1.85 1.85-1.85c1.02-.01 1.85.82 1.85 1.85" class="st1"/>
  <path id="path82" fill="#63b450" d="M284.39 46.03c0 1.02-.83 1.85-1.86 1.85-1.02 0-1.85-.83-1.85-1.85s.83-1.85 1.85-1.85c1.03-.01 1.86.82 1.86 1.85" class="st1"/>
  <path id="path84" fill="#63b450" d="M319.53 53.9c0 1.03-.83 1.85-1.86 1.85-1.02 0-1.85-.83-1.85-1.85s.83-1.85 1.85-1.85c1.03 0 1.86.83 1.86 1.85" class="st1"/>
  <path id="path86" fill="#63b450" d="M303.56 57.88c0 1.02-.83 1.85-1.85 1.85-1.03 0-1.86-.83-1.86-1.85 0-1.03.83-1.85 1.86-1.85 1.02 0 1.85.83 1.85 1.85" class="st1"/>
  <path id="path88" fill="#63b450" d="M310.26 59.74c0 1.02-.83 1.85-1.85 1.85s-1.85-.83-1.85-1.85.83-1.85 1.85-1.85 1.85.82 1.85 1.85" class="st1"/>
  <path id="path90" fill="#63b450" d="M270.48 69.17c0 1.02-.83 1.85-1.85 1.85s-1.85-.83-1.85-1.85.83-1.85 1.85-1.85 1.85.83 1.85 1.85" class="st1"/>
  <path id="path92" fill="#63b450" d="M272.34 59.74c0 1.02-.83 1.85-1.86 1.85-1.02 0-1.85-.83-1.85-1.85s.83-1.85 1.85-1.85c1.03-.01 1.86.82 1.86 1.85" class="st1"/>
  <path id="path94" fill="#63b450" d="M242.44 43.41c0 1.02-.83 1.85-1.86 1.85-1.02 0-1.85-.83-1.85-1.85 0-1.03.83-1.86 1.85-1.86 1.03 0 1.86.83 1.86 1.86" class="st1"/>
  <path id="path96" fill="#63b450" d="M225.4 44.17c0 1.02-.83 1.85-1.85 1.85s-1.85-.83-1.85-1.85.83-1.85 1.85-1.85 1.85.83 1.85 1.85" class="st1"/>
  <path id="path98" fill="#63b450" d="M229.73 17.56c0 1.03-.83 1.86-1.86 1.86-1.02 0-1.86-.83-1.86-1.86 0-1.02.83-1.85 1.86-1.85 1.03 0 1.86.83 1.86 1.85" class="st1"/>
</svg>
