<svg xmlns="http://www.w3.org/2000/svg" version="1.0" viewBox="0 0 230 200"><g stroke="#000" stroke-width="1.99959382"><path d="m58.276301 181.16917-6.223699-11.8146 47.223699-81.135881L146.5 7.0828121l13.5.0021097 13.5.0021098 47.23244 81.1278394 47.23244 81.127839-6.73244 11.80096L254.5 192.94463l-95 .01957-95 .01957-6.223699-11.8146zm140.997589-37.50572c-.97564-1.8351-10.31574-18.02665-20.75579-35.98122l-18.98189-32.644668-1.41884 2.731219C157.33701 79.270952 151.20536 89.95 144.49148 101.5c-6.71388 11.55-15.40841 26.5125-19.32116 33.25l-7.1141 12.25h82.99156l-1.77389-3.33655z" fill="#46afc6" transform="matrix(1.0004 0 0 1 -45.07375 0)"/><path d="M66.562349 190.54519c.88465-1.35015 19.067903-32.27028 40.407231-68.71139 21.33932-36.441123 39.2468-66.405928 39.7944-66.588459l.99562-.331875 5.6202 9.59962c7.06626 12.06958 8.81351 6.485369-14.70174 46.986914l-20.32104 35 26.7507.26594c14.71288.14627 39.1545.14627 54.3147 0l27.56401-.26594-39.61219-68.478259c-21.78671-37.663043-39.8318-69.050543-40.1002-69.7500003L146.78602 7l13.35699.0435158L173.5 7.0870316l47.23244 81.1278394 47.23244 81.127839-6.73244 11.80096L254.5 192.94463l-94.77305.02769L64.953894 193l1.608455-2.45481z" fill="#45b0c7" transform="matrix(1.0004 0 0 1 -45.07375 0)"/><path d="M66.562349 190.54519c.88465-1.35015 19.067903-32.27028 40.407231-68.71139 21.33932-36.441123 39.2468-66.405928 39.7944-66.588459l.99562-.331875 5.69064 9.719925 5.69063 9.719926-.46018 1.759709c-.25309.96784-12.20979 21.981584-26.57043 46.697214C117.74962 147.52586 106 168.02685 106 168.36799v.62025l80.94617.25588 80.94617.25588-6.69617 11.72069L254.5 192.94137l-94.77305.02932L64.953894 193l1.608455-2.45481z" fill="#46b0c6" transform="matrix(1.0004 0 0 1 -45.07375 0)"/></g></svg>