<svg xmlns="http://www.w3.org/2000/svg" overflow="hidden" viewBox="0 0 88.657349 76.802704"><path d="m31.10266 64.448587-7.10359-12.34219-1.20963-2.14662-1.20964-2.14663 2.43981-4.22376 2.43981-4.22375-5.01651-.19199-5.0165-.19199-8.2052-14.20719L.016 10.56727l-.008-.50242L0 9.56243l2.76369-4.78122L5.52739 0l16.87705.0999L39.2815.1998l2.342 4.11384 2.342 4.11385.19199.007.19198.007 2.42814-4.2172L49.20575.00708h33.65782l2.89689 5.01502 2.896891 5.01501-8.357621 14.471877-8.35762 14.47188-5.03967.19199-5.03966.19198 2.47437 4.25047 2.47437 4.25046-8.34972 14.46847-8.34972 14.468467-5.95313-.006-5.95313-.006zm25.97747-2.42824 7.77221-13.43924-4.27608-.10925-4.27607-.10924-.44647.17132-.44647.17133-7.59839 13.18516-7.59839 13.185167-.16827.30005-.16827.30004 4.717-.10805 4.71699-.10806zm-10.73144-.31374 7.37448-12.78155.24598-.64104.24599-.64103-2.24229-3.86113-2.24229-3.86112-.42376.57953-.42377.57953-4.9544 8.63557-4.95441 8.63557-.2206.0108-.2206.0108-5.31051-9.21548-5.31052-9.21547h-.1922l-2.20356 3.74379-2.20357 3.74378-.003.38398-.003.38398 7.5962 13.15125 7.5962 13.151247.23734-.006.23734-.006 7.37447-12.781547zm-5.16089-9.92017 2.21357-3.87453-2.45409-4.27314-2.45409-4.27313-4.69124-.10811-4.69124-.1081.13202.32184.13203.32184 4.58972 7.9458 4.58972 7.9458.21001-.0119.21001-.0119 2.21358-3.87452zm23.23321-5.4132-.56006-.86395-1.82158-3.16782-1.82158-3.16782h-9.21226l.128.35315.12799.35315 2.11188 3.67326 2.11188 3.67327 4.74789.005 4.74789.005-.56005-.86395zm-17.54068-4.51175 2.42935-4.22376h9.82339v-.40501l-2.30387-3.94943-2.30387-3.94943v-.7319l2.30387-3.98771 2.30387-3.9877v-.26783h-9.50542l-.4337-.52258-.4337-.522567-2.25126-3.89665-2.25126-3.89665-.3726.48345-.3726.48344-1.98489 3.50787-1.98489 3.50787-.50067.415507-.50066.41552-4.68119.10839-4.68118.10839 2.30573 3.96655 2.30573 3.96656V29.394487l-2.30387 3.98771-2.30387 3.9877v.26783h9.88696l2.4176 4.22376 2.41758 4.22376h.54607zm-17.20342-8.05248 2.19371-3.82873v-.40609H22.75963l-2.3194 4.03177-2.3194 4.03177h9.36237zm49.13504-9.37832 7.58357-13.181007v-.49042H55.45695l-2.19371 3.82873-2.19371 3.82873v.39412l10.73615.10198 10.73616.10197-4.42917 7.679567-4.42916 7.67956-.94749 1.63191-.94748 1.6319 4.71992-.013 4.71992-.013 7.58357-13.18101zm-59.61261 8.68691 2.11188-3.7354V28.548707L13.64998 15.25977 5.98873 1.97083 3.76254 5.77419 1.53635 9.57755v.91982l7.58357 13.171587 7.58356 13.17159.19199.006.19199.006 2.11188-3.7354zm46.72293-5.33259 4.29335-7.42629h-9.38996l-2.3822 4.17701-2.38222 4.17702v.49957l2.20788 3.85386 2.20787 3.85385.57597-.85436.57597-.85437zm-34.18651.0717-.21703-.56556-5.00776-8.676237-5.00776-8.67624v-.7153h21.42936l-2.3194-4.03178-2.31941-4.03177H7.29602v.40881l7.76317 13.42682 7.76317 13.426817h9.13042zm8.87521-12.969667 2.29728-3.93577-9.41576-.10283-9.41576-.10283-.17767.17767-.17767.17767 2.24219 3.86093 2.24218 3.86094h10.10793zm13.53038-4.82276v-.34079l-2.25179-3.89757-2.25179-3.89756-2.34051 4.06846-2.34051 4.06846 2.3419 4.01462 2.3419 4.01462 2.2504-3.84472 2.2504-3.84472zm32.19017-1.19407-.12799-.35315-2.11188-3.67326-2.11188-3.67327-15.45512-.005-15.45512-.005v.46068l2.15239 3.80143 2.15238 3.80143h31.08522z"/><g fill="#ffee21"><path d="M15.116611 14.955751C10.873222 7.6123668 7.3795605 1.5124856 7.3529199 1.4004591c-.0405997-.1707265 2.4562107-.202944 15.4305091-.1991072l15.478945.00458 2.209708 3.8673437c1.21534 2.1270389 2.209709 3.9114725 2.209709 3.9654077 0 .053935-4.786454.098064-10.636564.098064H21.408663v.3898768c0 .2389815 1.895833 3.6744039 4.898364 8.8762879 4.886508 8.465867 5.438579 9.455852 5.438579 9.752565 0 .106061-1.44694.156209-4.45687.154467l-4.45687-.0026zM55.058688 8.5000489c-1.517279-2.6134163-3.987494-7.0521567-3.987494-7.1651455 0-.083403 6.108366-.138129 15.417675-.138129h15.417674l2.18509 3.7953528c1.201798 2.0874441 2.185089 3.8739374 2.185089 3.9699851 0 .1318384-3.77972.1746323-15.424194.1746323H55.428336ZM48.232438 15.529596c-.777536-1.332576-1.811299-3.109136-2.297251-3.94791l-.88355-1.525043 2.287096-3.9790989c1.257903-2.1885044 2.302596-3.9628765 2.32154-3.9430493.308505.3228882 4.407136 7.6960858 4.407136 7.9281812 0 .228051-3.317127 6.150072-4.404835 7.863893-.009.01425-.6526-1.064396-1.430136-2.396973zM62.013219 37.490596c.0032-.06299 2.386652-4.226829 5.296532-9.25298 2.909881-5.026151 5.269505-9.178158 5.243609-9.226683-.02589-.04853-4.843769-.129056-10.706384-.178959-5.862615-.0499-10.689629-.121061-10.726697-.15813-.03707-.03707.931092-1.825068 2.151467-3.973333l2.218865-3.905937 15.393055-.005c14.562181-.0047 15.393039.0092 15.392749.257214-.00017.144193-3.394264 6.160967-7.542431 13.37061l-7.542122 13.108441-4.592242.03962c-2.525733.02179-4.589613-.01192-4.586401-.07491z"/><path d="M58.299563 32.9795c-1.174142-2.05095-2.134804-3.853267-2.134804-4.005148 0-.151881 1.061784-2.147432 2.35952-4.434558l2.359519-4.15841 4.621479-.0044 4.621478-.0044-.28516.486885c-.156838.267786-2.166834 3.742831-4.466657 7.72232-2.299824 3.97949-4.352289 7.43598-4.561035 7.68109l-.379537.445654zM55.362097 46.851603c-.441267-.707187-3.665253-6.359279-3.97356-6.9662l-.323433-.636696h9.12231l1.687912 2.958763c.928351 1.627319 1.977842 3.413812 2.332202 3.969985l.644291 1.011222H55.572424zM40.436152 74.832226c.240041-.413885 3.72517-6.459687 7.744732-13.435118 6.646799-11.534665 7.350375-12.695517 7.773231-12.825295.427392-.13117 8.53609-.006 8.663931.133702.02827.0309-3.400275 6.022389-7.618979 13.314428l-7.670371 13.258252-1.113744.09812c-.612559.05397-2.71158.122942-4.664491.153275l-3.550748.05515zM30.958883 61.291202c-4.181474-7.239669-7.60268-13.304545-7.60268-13.477503 0-.404206 4.378094-7.842281 4.527859-7.692515.06201.06201 2.461034 4.188765 5.331166 9.170569 3.797733 6.591879 5.297626 9.069595 5.509352 9.101058.240342.03571 1.116983-1.397039 5.041457-8.239592 4.975981-8.675913 5.76536-10.007276 5.930954-10.003112.111027.0028 4.264771 7.130115 4.346232 7.457607.0279.112148-.03459.417672-.138865.678941-.373834.936699-15.000688 26.16758-15.169878 26.16758-.0951 0-3.594123-5.923364-7.775597-13.163033z"/><path d="M33.882673 47.460668c-2.573627-4.464138-4.650629-8.145308-4.615561-8.180376.03507-.03507 2.116546-.01421 4.625506.04636l4.561745.110125 2.430191 4.241341 2.430191 4.241342-2.168866 3.791855c-1.192876 2.085521-2.262245 3.808529-2.376375 3.82891-.132021.02358-1.909759-2.915619-4.886831-8.079561zM18.51519 37.116092c.156601-.26899 1.183927-2.056468 2.282947-3.972173l1.998218-3.4831h4.474625c3.480089 0 4.474516.04162 4.474133.187263-.00027.102995-.963165 1.872635-2.139765 3.932532l-2.139273 3.745269-4.617807.03964-4.617808.03964zM16.821173 36.731232c-.087668-.057318-3.540726-5.979954-7.6734626-13.161418-5.6117629-9.751567-7.5140673-13.177966-7.5140673-13.534212 0-.3428699.6003228-1.5045629 2.1348034-4.1310877 1.1741418-2.0097437 2.170209-3.6552011 2.2134825-3.656572.184587-.00585 15.276924 26.3848837 15.276924 26.7135027 0 .258099-3.938564 7.534278-4.243133 7.838848-.01933.01933-.106879-.01175-.194547-.06906zM26.027992 14.939775c-1.675698-2.883451-2.155625-3.822307-2.022446-3.956404.132032-.132941 2.40934-.151208 9.338103-.0749 5.039918.0555 9.203417.140872 9.252223.189711.04881.04884-.899873 1.784772-2.108175 3.857628l-2.19691 3.768828-5.032867-.0021-5.032867-.0021z"/></g></svg>