<svg preserveAspectRatio="none" viewBox="0 0 1446 507" fill="none" xmlns="http://www.w3.org/2000/svg"><path d="m740.208 450.133 10.709-18.536-10.709-18.536 10.709-18.537h21.417l10.709 18.537-10.709 18.536 10.709 18.536h21.415l10.709-18.536h21.416l10.709 18.536h21.416l10.708-18.536-10.708-18.536h-21.417l-10.709-18.537 10.709-18.536-10.709-18.536h-21.417l-10.708 18.536h-21.416l-10.709-18.536 10.709-18.536h21.416l10.708-18.538-10.708-18.536 10.708-18.537h21.417l10.709 18.537h21.415l10.709-18.537-10.709-18.536h-21.415l-10.709-18.536 10.709-18.536h21.415l10.709-18.537-10.709-18.536 10.709-18.536h21.415l10.709 18.536-10.709 18.536 10.709 18.537h21.417l10.709 18.536-10.709 18.536h-21.417l-10.709 18.536 10.709 18.537h21.417l10.709-18.537h21.416l10.708 18.537-10.708 18.536 10.708 18.538h21.416l10.705 18.536-10.705 18.536h-21.416l-10.708-18.536h-21.416l-10.709 18.536 10.709 18.536-10.709 18.537h-21.417l-10.709 18.536 10.709 18.536h21.417l10.709-18.536h21.416l10.708 18.536h21.416l10.705-18.536-10.705-18.536 10.705-18.537h21.42l10.71 18.537-10.71 18.536 10.71 18.536h21.41l10.71-18.536h21.42l10.71 18.536h21.41l10.71-18.536-10.71-18.536h-21.41l-10.71-18.537 10.71-18.536h21.41l10.71-18.536-10.71-18.536 10.71-18.538h21.42l10.71 18.538-10.71 18.536 10.71 18.536h21.41l10.71 18.536-10.71 18.537h-21.41l-10.71 18.536 10.71 18.536h21.41l10.71-18.536h21.42l10.71 18.536h21.41l10.71-18.536-10.71-18.536 10.71-18.537h21.42l10.71 18.537-10.71 18.536 10.71 18.536h21.41l10.71-18.536h21.42l10.71 18.536h21.41l10.71-18.536-10.71-18.536h-21.41l-10.71-18.537 10.71-18.536-10.71-18.536h-21.42l-10.71 18.536h-21.41l-10.71-18.536 10.71-18.536h21.41l10.71-18.538-10.71-18.536h-21.41l-10.71-18.537 10.71-18.536-10.71-18.536h-21.42l-10.71 18.536 10.71 18.536-10.71 18.537h-21.41l-10.71-18.537h-21.42l-10.71 18.537h-21.41l-10.71-18.537 10.71-18.536h21.41l10.71-18.536-10.71-18.536 10.71-18.537h21.42l10.71 18.537h21.41l10.71-18.537-10.71-18.536h-21.41l-10.71-18.536 10.71-18.537-10.71-18.536h-21.42l-10.71 18.536h-21.41l-10.71-18.536 10.71-18.537h21.41l10.71-18.537-10.71-18.536h-21.41l-10.71-18.536 10.71-18.536-10.71-18.537h-21.42l-10.71 18.537 10.71 18.536-10.71 18.536h-21.41l-10.71 18.536 10.71 18.537h21.41l10.71 18.537-10.71 18.536h-21.41l-10.71-18.536h-21.42l-10.71 18.536h-21.41l-10.71-18.536 10.71-18.537-10.71-18.537h-21.42l-10.705 18.537 10.705 18.537-10.705 18.536h-21.416l-10.708-18.536h-21.416l-10.709 18.536h-21.417l-10.707-18.536 10.707-18.537h21.417l10.709-18.537-10.709-18.536 10.709-18.536h21.416l10.708 18.536h21.416l10.705-18.536-10.705-18.536h-21.416l-10.708-18.537L975.789 5.26h21.416l10.705-18.536-10.705-18.537 10.705-18.536h21.42l10.71 18.536-10.71 18.537 10.71 18.536h21.41l10.71-18.536h21.42l10.71 18.536h21.41l10.71-18.536-10.71-18.537h-21.41l-10.71-18.536 10.71-18.536-10.71-18.536h-21.42l-10.71 18.536h-21.41l-10.71-18.536 10.71-18.537h21.41l10.71-18.536-10.71-18.536h-21.41l-10.71 18.536h-21.42l-10.705-18.536 10.705-18.537h21.42l10.71-18.536-10.71-18.536h-21.42l-10.705-18.536 10.705-18.537-10.705-18.536h-21.416l-10.708 18.536 10.708 18.537-10.708 18.536h-21.416l-10.709 18.536 10.709 18.536h21.416l10.708 18.537-10.708 18.536h-21.416l-10.709-18.536h-21.417l-10.707 18.536h-21.417l-10.709-18.536 10.709-18.537-10.709-18.536h-21.415l-10.709 18.536 10.709 18.537-10.709 18.536h-21.417l-10.708-18.536h-21.416l-10.709 18.536h-21.416l-10.709-18.536 10.709-18.537h21.416l10.709-18.536-10.709-18.536 10.709-18.536h21.416l10.708 18.536h21.417l10.709-18.536-10.709-18.537h-21.417l-10.708-18.536 10.708-18.537h21.417l10.709-18.537-10.709-18.536 10.709-18.536h21.415l10.709 18.536-10.709 18.536 10.709 18.537h21.417l10.707-18.537h21.417l10.709 18.537h21.416l10.708-18.537-10.708-18.536h-21.416l-10.709-18.536 10.709-18.537-10.709-18.536h-21.417l-10.707 18.536h-21.417l-10.709-18.536 10.709-18.536h21.417l10.707-18.536-10.707-18.537h-21.417l-10.709-18.536 10.709-18.536-10.709-18.536h-21.415l-10.709 18.536 10.709 18.536-10.709 18.536h-21.417l-10.708-18.536h-21.416l-10.709 18.536h-21.416l-10.709-18.536 10.709-18.536h21.416l10.709-18.536-10.709-18.537 10.709-18.536h21.416l10.708 18.536h21.417l10.709-18.536-10.709-18.536h-21.417l-10.708-18.537 10.708-18.537-10.708-18.536h-21.416l-10.709 18.536h-21.416l-10.709-18.536 10.709-18.537h21.416l10.709-18.536-10.709-18.536h-21.416l-10.709-18.537 10.709-18.536-10.709-18.536h-21.415l-10.709 18.536 10.709 18.536-10.709 18.537h-21.417l-10.707 18.536 10.707 18.536h21.417l10.709 18.537-10.709 18.536h-21.417l-10.707-18.536h-21.417l-10.709 18.536 10.709 18.537-10.709 18.537h-21.415l-10.709 18.536 10.709 18.536h21.415l10.709-18.536h21.417l10.707 18.536-10.707 18.537 10.707 18.536h21.417l10.709 18.536-10.709 18.536h-21.417l-10.707-18.536h-21.417l-10.709 18.536h-21.415l-10.709-18.536 10.709-18.536-10.709-18.536h-21.416l-10.709 18.536 10.709 18.536-10.709 18.536h-21.416l-10.709 18.537 10.709 18.536h21.416l10.709 18.536-10.709 18.536h-21.416l-10.709-18.536h-21.416l-10.709 18.536 10.709 18.537-10.709 18.536h-21.415l-10.709 18.536 10.709 18.537h21.415l10.709-18.537h21.416l10.709 18.537h21.416l10.709-18.537-10.709-18.536 10.709-18.536h21.416l10.709 18.536-10.709 18.536 10.709 18.537h21.415l10.709 18.537-10.709 18.536h-21.415l-10.709 18.537 10.709 18.536h21.415l10.709-18.536h21.417l10.707 18.536-10.707 18.536 10.707 18.536h21.417l10.709 18.537-10.709 18.536h-21.417l-10.707-18.536h-21.417l-10.709 18.536h-21.415l-10.709-18.536 10.709-18.537-10.709-18.536h-21.416l-10.709 18.536 10.709 18.537-10.709 18.536h-21.416l-10.709-18.536h-21.416l-10.709 18.536h-21.415L483.21-143.03l10.709-18.537h21.415l10.709-18.536-10.709-18.536h-21.415l-10.709-18.536 10.709-18.537-10.709-18.536h-21.417l-10.709 18.536 10.709 18.537-10.709 18.536h-21.415l-10.709 18.536 10.709 18.536h21.415l10.709 18.537-10.709 18.536h-21.415L418.96-143.03h-21.416l-10.708 18.536 10.708 18.536h21.416l10.709 18.537-10.709 18.536h-21.416l-10.708-18.536H365.42l-10.709 18.536 10.709 18.536-10.709 18.536h-21.414l-10.709 18.537L333.297 5.26h21.415l10.709-18.536h21.416L397.545 5.26h21.417l10.709-18.536-10.709-18.537 10.709-18.536h21.415l10.709 18.536-10.709 18.537L461.795 5.26h21.416l10.709 18.536-10.709 18.537h-21.416l-10.709 18.536 10.709 18.536h21.416l10.709-18.536h21.415l10.709 18.536-10.709 18.536 10.709 18.537h21.417l10.709 18.537-10.709 18.536h-21.417l-10.709-18.536H493.92l-10.709 18.536h-21.416l-10.709-18.536 10.709-18.537-10.709-18.537h-21.415l-10.709 18.537 10.709 18.537-10.709 18.536h-21.417l-10.708-18.536h-21.416l-10.709 18.536h-21.415l-10.709-18.536 10.709-18.537h21.415l10.709-18.537-10.709-18.536h-21.415l-10.709-18.536 10.709-18.536-10.709-18.537h-21.417l-10.707 18.537 10.707 18.536-10.707 18.536h-21.417l-10.709 18.536 10.709 18.537h21.417l10.707 18.537-10.707 18.536h-21.417l-10.709-18.536h-21.415l-10.709 18.536 10.709 18.537-10.709 18.536h-21.416l-10.709 18.536 10.709 18.537h21.416l10.709-18.537h21.415l10.709 18.537-10.709 18.536 10.709 18.536h21.417l10.707 18.536-10.707 18.537h-21.417l-10.709-18.537h-21.415l-10.709 18.537h-21.416l-10.709-18.537 10.709-18.536-10.709-18.536h-21.416l-10.709 18.536 10.709 18.536-10.709 18.537h-21.416l-10.709 18.536 10.709 18.538h21.416l10.709 18.536-10.709 18.536h-21.416l-10.709-18.536h-21.415l-10.709 18.536 10.709 18.536-10.709 18.537H76.3l-10.708 18.536L76.3 450.133h21.416l10.709-18.536h21.415l10.709 18.536h21.417l10.709-18.536-10.709-18.536 10.709-18.537h21.415l10.709 18.537-10.709 18.536 10.709 18.536h21.416l10.709-18.536h21.416l10.708 18.536h21.417l10.708-18.536-10.708-18.536h-21.417l-10.708-18.537 10.708-18.536h21.417l10.708-18.536-10.708-18.536 10.708-18.538h21.416l10.709 18.538-10.709 18.536 10.709 18.536h21.415l10.709 18.536-10.709 18.537h-21.416l-10.709 18.536 10.709 18.536h21.415l10.709-18.536h21.416l10.708 18.536h21.417l10.709-18.536-10.709-18.536 10.709-18.537h21.415l10.709 18.537-10.709 18.536 10.709 18.536h21.416l10.709-18.536h21.415l10.709 18.536h21.417l10.709-18.536-10.709-18.536h-21.417l-10.709-18.537 10.709-18.536-10.709-18.536H493.92l-10.709 18.536h-21.416l-10.709-18.536 10.709-18.536h21.416l10.709-18.538-10.709-18.536 10.709-18.537h21.415l10.709 18.537h21.417l10.709-18.537-10.709-18.536h-21.417l-10.709-18.536 10.709-18.536h21.417l10.709-18.537-10.709-18.536 10.709-18.536h21.415l10.709 18.536-10.709 18.536 10.709 18.537h21.416l10.709 18.536-10.709 18.536h-21.416l-10.709 18.536 10.709 18.537h21.416l10.709-18.537h21.416l10.708 18.537-10.708 18.536 10.708 18.538h21.417l10.708 18.536-10.708 18.536h-21.417l-10.708-18.536h-21.416l-10.709 18.536 10.709 18.536-10.709 18.537h-21.416l-10.709 18.536 10.709 18.536h21.416l10.709-18.536h21.416l10.708 18.536h21.417l10.708-18.536-10.708-18.536 10.708-18.537h21.416l10.709 18.537-10.709 18.536 10.709 18.536h21.415Z" stroke="#fff"/></svg>