<?xml version="1.0" encoding="UTF-8" standalone="no"?>
<svg
   xmlns:dc="http://purl.org/dc/elements/1.1/"
   xmlns:cc="http://creativecommons.org/ns#"
   xmlns:rdf="http://www.w3.org/1999/02/22-rdf-syntax-ns#"
   xmlns:svg="http://www.w3.org/2000/svg"
   xmlns="http://www.w3.org/2000/svg"
   xmlns:sodipodi="http://sodipodi.sourceforge.net/DTD/sodipodi-0.dtd"
   xmlns:inkscape="http://www.inkscape.org/namespaces/inkscape"
   width="1280"
   height="1280"
   viewBox="0 0 1280 1280"
   version="1.1"
   id="svg8"
   sodipodi:docname="bg-tiling-2.svg"
   inkscape:version="0.92.4 (5da689c313, 2019-01-14)">
  <metadata
     id="metadata14">
    <rdf:RDF>
      <cc:Work
         rdf:about="">
        <dc:format>image/svg+xml</dc:format>
        <dc:type
           rdf:resource="http://purl.org/dc/dcmitype/StillImage" />
        <dc:title></dc:title>
      </cc:Work>
    </rdf:RDF>
  </metadata>
  <defs
     id="defs12" />
  <sodipodi:namedview
     pagecolor="#ffffff"
     bordercolor="#666666"
     borderopacity="1"
     objecttolerance="10"
     gridtolerance="10"
     guidetolerance="10"
     inkscape:pageopacity="0"
     inkscape:pageshadow="2"
     inkscape:window-width="1920"
     inkscape:window-height="1009"
     id="namedview10"
     showgrid="false"
     inkscape:pagecheckerboard="true"
     inkscape:zoom="2.95"
     inkscape:cx="652.24502"
     inkscape:cy="558.86686"
     inkscape:window-x="-8"
     inkscape:window-y="-8"
     inkscape:window-maximized="1"
     inkscape:current-layer="g6" />
  <g
     fill="transparent"
     id="g6"
     stroke-linejoin="round"
     stroke-linecap="round"
     stroke-width="1"
     stroke="rgb(0, 0, 0)">
    <path
       d="M726,577 L759,475 L672,538 L640,640 Z M726,702 L640,640 L672,741 L759,804 Z M500,538 L414,475 L447,577 L533,640 Z M500,538 L533,437 L566,538 L533,640 Z M500,741 L533,640 L566,741 L533,842 Z M500,741 L533,640 L447,702 L414,804 Z M619,374 L726,374 L640,437 L533,437 Z M619,374 L726,374 L640,311 L533,311 Z M447,374 L360,311 L327,210 L414,272 Z M447,374 L340,374 L254,311 L360,311 Z M726,374 L759,272 L845,210 L812,311 Z M726,374 L832,374 L919,311 L812,311 Z M1005,374 L919,311 L952,413 L1038,475 Z M1005,374 L1038,272 L1071,374 L1038,475 Z M845,210 L759,147 L726,46 L812,108 Z M812,108 L919,108 L832,46 L726,46 Z M533,108 L639,108 L726,46 L619,46 Z M533,311 L566,210 L533,108 L500,210 Z M414,147 L447,46 L360,108 L327,210 Z M134,475 L167,374 L134,272 L101,374 Z M221,413 L254,311 L167,374 L134,475 Z M101,577 L134,475 L48,538 L15,640 Z M188,640 L221,538 L254,640 L221,741 Z M101,702 L15,640 L48,741 L134,804 Z M134,804 L101,905 L134,1007 L167,905 Z M221,866 L134,804 L167,905 L254,968 Z M414,1132 L327,1069 L360,1171 L447,1233 Z M447,905 L414,1007 L327,1069 L360,968 Z M447,905 L340,905 L254,968 L360,968 Z M414,804 L307,804 L221,741 L327,741 Z M533,968 L500,1069 L533,1171 L566,1069 Z M619,905 L726,905 L640,968 L533,968 Z M619,905 L726,905 L640,842 L533,842 Z M726,905 L812,968 L845,1069 L759,1007 Z M726,905 L832,905 L919,968 L812,968 Z M1038,804 L1071,702 L1157,639 L1124,741 Z M1038,804 L1145,804 L1231,741 L1124,741 Z M1005,905 L1038,804 L1071,905 L1038,1007 Z M1005,905 L1038,804 L952,866 L919,968 Z M1038,475 L1124,538 L1157,639 L1071,577 Z M1038,475 L1145,475 L1231,538 L1124,538 Z M919,640 L952,538 L985,640 L952,741 Z M845,538 L952,538 L865,475 L759,475 Z M845,741 L952,741 L865,804 L759,804 Z M845,1069 L812,1171 L726,1233 L759,1132 Z M812,1171 L919,1171 L832,1233 L726,1233 Z M533,1171 L640,1171 L726,1233 L619,1233 Z M414,475 L307,475 L221,538 L327,538 Z "
       fill="transparent"
       id="path2"
       style="fill:none;stroke:#ffffff;stroke-opacity:1;stroke-width:0.4;stroke-miterlimit:4;stroke-dasharray:none" />
    <path
       d="M533,640 L447,577 L360,640 L447,702 Z M533,640 L640,640 L672,741 L566,741 Z M533,640 L640,640 L672,538 L566,538 Z M500,538 L533,437 L447,374 L414,475 Z M500,741 L414,804 L447,905 L533,842 Z M533,437 L640,437 L672,538 L566,538 Z M619,374 L533,311 L447,374 L533,437 Z M726,374 L640,437 L672,538 L759,475 Z M726,374 L759,272 L672,210 L640,311 Z M726,374 L832,374 L865,475 L759,475 Z M812,311 L919,311 L952,210 L845,210 Z M759,272 L672,210 L759,147 L845,210 Z M832,374 L919,311 L952,413 L865,475 Z M1005,374 L1038,272 L952,210 L919,311 Z M1038,272 L1145,272 L1178,374 L1071,374 Z M845,210 L952,210 L919,108 L812,108 Z M672,210 L759,147 L726,46 L639,108 Z M566,210 L672,210 L639,108 L533,108 Z M533,311 L447,374 L414,272 L500,210 Z M533,311 L640,311 L672,210 L566,210 Z M500,210 L414,147 L327,210 L414,272 Z M500,210 L533,108 L447,46 L414,147 Z M360,311 L254,311 L221,210 L327,210 Z M254,311 L167,374 L134,272 L221,210 Z M188,640 L101,702 L134,804 L221,741 Z M188,640 L101,577 L15,640 L101,702 Z M188,640 L221,538 L134,475 L101,577 Z M254,968 L221,1069 L134,1007 L167,905 Z M360,968 L254,968 L221,1069 L327,1069 Z M414,804 L447,702 L360,640 L327,741 Z M414,804 L307,804 L340,905 L447,905 Z M533,842 L640,842 L672,741 L566,741 Z M533,968 L500,1069 L414,1007 L447,905 Z M533,968 L640,968 L672,1069 L566,1069 Z M307,804 L221,866 L254,968 L340,905 Z M307,804 L221,741 L134,804 L221,866 Z M566,1069 L672,1069 L640,1171 L533,1171 Z M619,905 L533,842 L447,905 L533,968 Z M500,1069 L414,1132 L447,1233 L533,1171 Z M500,1069 L414,1007 L327,1069 L414,1132 Z M672,1069 L640,1171 L726,1233 L759,1132 Z M726,905 L640,968 L672,1069 L759,1007 Z M726,905 L759,804 L672,741 L640,842 Z M726,905 L832,905 L865,804 L759,804 Z M759,1007 L845,1069 L759,1132 L672,1069 Z M812,968 L919,968 L952,1069 L845,1069 Z M832,905 L865,804 L952,866 L919,968 Z M952,741 L1038,804 L952,866 L865,804 Z M952,741 L985,640 L1071,702 L1038,804 Z M1038,804 L1145,804 L1178,905 L1071,905 Z M1124,741 L1231,741 L1264,639 L1157,639 Z M1005,905 L919,968 L952,1069 L1038,1007 Z M1124,538 L1231,538 L1264,639 L1157,639 Z M1038,475 L1145,475 L1178,374 L1071,374 Z M985,640 L1071,702 L1157,639 L1071,577 Z M952,538 L1038,475 L1071,577 L985,640 Z M952,538 L865,475 L952,413 L1038,475 Z M812,640 L726,702 L759,804 L845,741 Z M812,640 L726,577 L640,640 L726,702 Z M812,640 L845,538 L759,475 L726,577 Z M812,640 L919,640 L952,741 L845,741 Z M812,640 L919,640 L952,538 L845,538 Z M1038,1007 L1145,1007 L1178,905 L1071,905 Z M845,1069 L952,1069 L919,1171 L812,1171 Z M327,741 L221,741 L254,640 L360,640 Z M327,538 L221,538 L254,640 L360,640 Z M414,475 L327,538 L360,640 L447,577 Z M414,475 L307,475 L340,374 L447,374 Z M307,475 L221,413 L134,475 L221,538 Z M307,475 L340,374 L254,311 L221,413 Z "
       fill="transparent"
       id="path4"
       style="fill:none;stroke:#ffffff;stroke-opacity:1;stroke-width:0.4;stroke-miterlimit:4;stroke-dasharray:none" />
  </g>
</svg>
