<svg xmlns="http://www.w3.org/2000/svg" xml:space="preserve" viewBox="0 0 551.36206 220.02283"><path d="M331.000729 204.8928274c-.349 4.217-2.486 6.823-6.838 7.575-7.202 1.246-14.469.55-21.64-.246-4.644-.515-6.313-3.336-6.616-8.958-.82-15.226-.514-30.456-.228-45.688.183-9.742.238-19.488.22-29.232-.023-11.977-8.384-17.927-19.884-14.264-8.263 2.631-13.789 9.955-13.896 19.745-.225 20.48-.781 40.972.619 61.439.265 3.878-.157 7.711-1.042 11.516-.778 3.347-2.87 5.183-6.094 5.798-7.595 1.447-15.202.347-22.735-.423-4.505-.46-6.167-3.433-6.165-8.803.009-17.493.041-34.986.114-52.478.069-16.49-.072-32.959-2.223-49.355-1.381-10.529.143-12.518 10.715-14.502 3.795-.712 7.649-1.207 11.499-1.492 5.475-.407 9.222 2.192 11.658 7.079 1.011 2.029 1.339 5.388 3.47 5.617 1.563.168 3.478-2.473 5.16-3.947 12.849-11.252 27.562-13.853 43.713-9.246 6.558 1.87 12.06 5.392 15.362 11.677 1.423 2.71 3.037 3.072 5.575 1.018 7.491-6.064 15.19-11.805 25.01-13.705 6.824-1.32 13.628-1.69 20.424-.023 13.979 3.43 22.755 14.111 24.387 29.247.969 8.988.195 17.95.168 26.929-.056 18.976-.692 37.969.827 56.929.167 2.089-.087 4.243-.381 6.333-.864 6.158-4.018 9.113-10.263 9.2-6.095.084-12.166 1.224-18.304.068-4.461-.84-7.275-3.103-8.111-7.58-.365-1.953-.787-3.972-.663-5.928 1.161-18.223.172-36.471.745-54.697.192-6.103 1.042-12.167.102-18.305-1.693-11.059-10.046-16.048-20.469-11.834-9.778 3.953-13.973 11.849-13.976 21.891-.007 19.485-.624 38.979.37 58.455.117 2.295-.284 4.472-.725 6.674-.654 1.195-.978 2.378.115 3.516zM51.704729 220.0228274c-11.761-.717-23.725-1.419-35.259-5.12-3.583-1.149-7.019-2.617-10.07-4.849-9.458-6.917-8.157-22.512 2.335-27.892 3.543-1.816 6.949-1.269 10.331.67 10.279 5.893 21.271 8.423 33.093 6.655 3.596-.537 7.027-1.662 7.892-5.761.816-3.872-1.257-6.738-4.155-9.009-3.894-3.051-8.591-4.507-13.09-6.331-6.127-2.482-12.27-4.909-17.997-8.273-13.401-7.871-19.937-19.717-19.552-35.073.399-15.941 7.192-28.619 21.827-35.748 17.351-8.45 35.579-9.543 53.863-3.311 14.597 4.976 21.813 18.09 18.414 32.1-1.487 6.128-5.091 10.485-11.217 12.482-4.28 1.396-8.609 2.598-13.172 2.536-4.713-.064-5.704-.954-6.221-5.536-1.431-12.68-12.67-18.231-23.525-11.62-6.072 3.698-7.006 10.351-2.098 15.522 3.821 4.026 8.882 5.903 13.948 7.719 8.448 3.028 17.026 5.778 24.656 10.668 13.718 8.794 19.5 21.572 17.273 37.46-2.291 16.35-12.449 26.147-28.155 30.413-6.183 1.683-12.541 2.076-19.121 2.298zM452.411729 123.7548274c.181 26.346-.304 52.692.207 79.044.14 7.155-1.608 9.117-8.719 9.997-6.21.768-12.466.829-18.668-.133-4.989-.774-6.439-2.536-6.441-7.484-.013-36.106.04-72.212-.064-108.317-.013-4.627 1.76-8.098 4.947-11.159.772-.742 1.594-.578 2.419-.576 5.746.012 11.492.095 17.237.081 1.355-.003 2.367.104 2.769 1.701.242.964.994 1.868 2.079 1.955 4.226.338 4.257 3.309 4.246 6.435-.032 9.484-.012 18.971-.012 28.456z" clip-rule="evenodd" fill="#00c4ee" fill-rule="evenodd"/><path d="M436.070729 22.8738274c-.048-.115-.101-.228-.143-.345-.617-1.752-.745-4.227-1.98-5.063-1.358-.918-2.623 1.666-4.251 2.229-2.683.928-5.391 1.758-7.753-.382-2.316-2.098-2.127-4.983-1.362-7.674.88-3.093 3.433-4.688 6.38-5.046 2.712-.328 4.488 1.933 6.202 3.668 1.135 1.15 1.646 1.125 2.43-.182.896-1.493 1.831-2.976 2.89-4.356 4.709-6.137 12.636-7.484 19.297-3.332 6.563 4.09 8.669 11.788 5.185 18.946-3.604 7.401-10.552 10.276-18.028 7.425-2.926-1.116-5.544-2.812-8.147-4.521-.612-.261-.346-.982-.72-1.367z" clip-rule="evenodd" fill="#5fbc63" fill-rule="evenodd"/><path d="M499.165729 77.5618274c1.781-.104 3.536-.056 5.128.907.565.288 1.252.038 1.804.397.678.395 1.361.782 2.075 1.116.281.163.509.381.679.658.172.595.266 1.227.527 1.779 4.085 8.63 3.135 16.15-4.814 22.167-.146.11-.097.475-.14.72-.614.91-1.61 1.156-2.563 1.483-3.338.947-6.679 1.076-10.024.032-1.662-.626-3.561-.932-4.172-3.013-1.273-1.985-2.633-3.921-3.806-5.964-3.253-5.662-2.616-10.253 1.992-14.853 1.583-1.581 3.228-3.099 4.845-4.646 2.644-2.196 5.614-.878 8.469-.783zM508.022729 35.0088274c11.221-.536 17.926 5.861 16.636 15.873-.808 6.267-4.277 10.325-10.227 11.963-6.173 1.699-12.764-.287-16.215-4.887-3.538-4.714-3.809-10.856-.638-16.179 1.285-2.157 2.907-4.047 5.014-5.471 1.539-1.566 3.666-.675 5.43-1.299z" clip-rule="evenodd" fill="#5ebb62" fill-rule="evenodd"/><path d="M485.704729 43.9438274c-2.264.503-4.279.706-3.179 4.249 2.229 7.172 1.287 8.4-6.202 10.042-.81.178-1.391.461-1.522 1.337-1.965-.15-3.539-1.193-5.11-2.241 2.043-2.777-.223-5.472-.22-8.215.001-.953-1.022-.882-1.727-.39-4.166 2.908-8.983 2.506-13.681 2.721-.654-.33-.353-1.144-.802-1.577-1.44-1.601-2.191-3.585-2.93-5.541-2.201-5.827-.451-10.205 5.091-13 5.037-2.541 9.52-1.288 12.481 3.509 1.25 2.026 2.394 4.234 2.468 6.561.112 3.525 1.706 4.158 4.598 3.096 2.032-.745 4.494.591 6.258-1.338 1.63-.514 3.166-.499 4.477.787z" clip-rule="evenodd" fill="#61bd65" fill-rule="evenodd"/><path d="M469.691729 57.3308274c2.205-.396 3.667.9 5.11 2.241 6.36 8.376 3.852 17.205-5.402 19.007-4.806.935-10-2.363-11.887-7.549-1.677-4.603.399-9.646 5.018-11.895 2.238-1.09 4.615-1.834 7.161-1.804zM508.022729 35.0088274c-1.317 2.494-3.677.627-5.43 1.298-2.604-1.606-5.665-2.346-7.999-4.503-4.038-3.732-5.22-7.015-3.626-10.789 1.717-4.067 6.978-7.151 11.526-6.756 7.091.617 10.783 6.508 8.658 13.336-.81 2.607-3.338 4.429-3.129 7.414zM426.932729 30.3448274c.196 2.024 1.247 3.722 2.094 5.501 2.338 4.914 1.918 7.042-2.027 10.823-1.068 1.023-2.046 2.14-3.064 3.214-.174.322-.227.749-.696.821-2.779-.148-5.585-.634-8.253.643-.597.576-1.327.339-2.021.334-.821-.387-.555-1.228-.775-1.865-.948-3.183-2.322-6.203-2.574-9.63-.413-5.626 3.729-10.098 9.059-9.862 2.752-.496 5.505-.534 8.257.021z" clip-rule="evenodd" fill="#60bc64" fill-rule="evenodd"/><path d="M487.665729 103.8088274c1.288.718 2.575 1.437 3.863 2.154 1.374 4.572 3.574 9.058 1.418 13.993-.198.453-.365.916-.627 1.339-.221.315-.509.548-.86.702-3.567.942-6.92 2.665-10.828 2.275-4.678-.467-7.357-2.916-8.282-8.105-.9-5.052.826-8.707 5.064-10.46 3.27-1.354 6.792-1.493 10.252-1.898z" clip-rule="evenodd" fill="#62bd65" fill-rule="evenodd"/><path d="M540.216729 74.5748274c-4.563 4.361-10.042 4.117-15.672 3.123-.63-.359-.39-1.052-.606-1.57-.546-1.384-1.172-2.743-1.624-4.157-2.241-7.004-.344-11.476 5.861-13.946 5.046-2.009 10.218.669 13.066 6.766 2.128 5.187 1.934 7.038-1.025 9.784z" clip-rule="evenodd" fill="#5fbc63" fill-rule="evenodd"/><path d="M504.058729 148.8188274c3.345 6.94 1.544 12.545-4.83 15.042-5.894 2.31-12.278-.75-13.947-6.724-1.153-4.129.049-7.622 3.17-10.428 3.134-2.816 6.71-3.652 10.68-1.863 1.239.558 2.435 1.212 3.65 1.822 1.077.33 1.239 1.205 1.277 2.151zM491.459729 121.9978274c.059-.365.117-.729.175-1.093 2.835-1.703 5.966-1.735 9.124-1.63 2.031.131 4.17-.376 5.993.997 3.831 3.072 5.38 7.117 5.086 11.945.237.31.263.643.107.995-1.374 1.039-2.676 2.145-3.741 3.526-1.184 1.534-2.726 2.428-4.743 2.277-3.874.023-7.831.298-10.511-3.386-1.709-1.549-2.724-3.278-1.46-5.602-.553-2.674-.468-5.351-.03-8.029z" clip-rule="evenodd" fill="#5ebb62" fill-rule="evenodd"/><path d="M453.262729 49.8698274c.659.326.759.937.802 1.577 4.305 7.088 2.461 11.443-5.597 13.203-.712.155-1.437.261-2.293.414.353 1.227.719 2.265.942 3.333.387 1.85-.052 3.447-1.664 4.6-1.552 1.11-3.079.794-4.496-.194-1.921-1.339-3.753-2.528-5.914-.389-1.277 1.265-2.771 2.327-4.636 1.256-2.017-1.158-2.223-3.184-1.977-5.232.145-1.208.558-2.384.85-3.574.793-.722 1.61-.571 2.438-.067 3.792.665 7.531 1.438 11.422.2 1.579-.503 2.306-.766 1.204-2.336-1.591-2.269-1.849-4.833-1.676-7.495-.042-1.345.202-2.54 1.635-3.109 2.567-2.448 6.222-.437 8.96-2.187z" clip-rule="evenodd" fill="#65be69" fill-rule="evenodd"/><path d="M515.060729 116.4758274c1.818-.841 3.754-1.257 5.99-1.552-1.207-2.493-2.268-4.938-1.341-7.702.98-2.923 3.417-4.177 6.126-2.964 2.942 1.317 2.167 3.642 1.161 5.667-.868 1.749-2.24 3.248-3.52 5.041 1.021.962 2.268 1.856 3.151 3.025 2.623 3.474 2.17 6.948-1.02 9.054-3.737 2.466-7.174 1.768-9.63-1.909-1.409-2.109-1.956-4.55-2.776-6.888-.175-1.425.448-2.012 1.859-1.772z" clip-rule="evenodd" fill="#62bd65" fill-rule="evenodd"/><path d="M499.165729 77.5618274c-2.813.363-5.745-.551-8.469.784-.958-1.623-2.493-.637-3.732-.729-3.03-.227-5.317-1.443-6.398-4.342-.975-2.61-.892-5.138 1.263-7.272 2.19-2.17 4.599-3.534 7.699-1.983 1.145.573 1.813.691 2.684-.583 1.067-1.562 2.867-1.991 4.684-1.355.798.279.716 1.222.657 1.977-.198 2.548-2.329 2.118-4.246 2.546 2.073 3.507.939 6.698-1.195 9.903 2.443 1.275 4.954-.036 7.053 1.054z" clip-rule="evenodd" fill="#63be67" fill-rule="evenodd"/><path d="M491.489729 130.0258274c.486 1.867.973 3.734 1.46 5.602-1.286 1.819-2.434 3.756-3.888 5.427-2.29 2.628-5.755 3.151-8.486 1.539-2.851-1.684-4.574-6.327-3.544-9.546.987-3.083 3.625-4.447 7.496-4.084 2.347.22 4.517 1.544 6.962 1.062z" clip-rule="evenodd" fill="#6dc170" fill-rule="evenodd"/><path d="M508.851729 80.6398274c-.299-.019-.598-.037-.896-.056-.564-.776-1.539-.932-2.25-1.487-.471-.209-.941-.419-1.412-.628 1.877-1.076.865-2.93 1.074-4.393.839-5.863 2.908-8.03 7.844-7.813 4.01.177 5.809 2.558 6.153 8.142.156 1.356 1.056 2.874-.825 3.785-2.867 2.248-6.225 2.558-9.688 2.45z" clip-rule="evenodd" fill="#64bf67" fill-rule="evenodd"/><path d="M515.060729 116.4758274c-.878.319-1.511.895-1.856 1.771-2.25.358-5.079-1.128-6.452 2.023h-6.403c.806-1.846 1.063-3.616.35-5.667-1.043-2.995.146-5.846 1.319-8.607.642-.793 1.562-.61 2.407-.689 9.813.714 9.841.742 10.635 11.169z" clip-rule="evenodd" fill="#65bf69" fill-rule="evenodd"/><path d="M437.645729 30.3218274c5.063-.009 7.465 1.541 8.132 5.241.712 3.947-1.007 7.197-4.421 8.439-2.888 1.05-5.399.209-7.624-1.613-2.269-1.858-2.193-4.307-1.302-6.811.624-1.752 1.361-3.465 2.049-5.194 1.043-.662 2.102-.477 3.166-.062z" clip-rule="evenodd" fill="#60bd64" fill-rule="evenodd"/><path d="M521.899729 99.3608274c-4.093-.018-7.013-2.958-7.012-7.063 0-4.053 2.992-7.124 6.994-7.18 4.189-.059 7.217 3.052 7.136 7.332-.078 4.133-2.956 6.928-7.118 6.911z" clip-rule="evenodd" fill="#62be66" fill-rule="evenodd"/><path d="M476.676729 28.8658274c-4.011-.095-7.431-3.384-7.298-7.017.133-3.604 4.036-6.927 8.075-6.874 3.779.049 6.341 3.046 6.28 7.346-.056 3.969-2.939 6.643-7.057 6.545z" clip-rule="evenodd" fill="#60bc64" fill-rule="evenodd"/><path d="M485.704729 43.9438274c-1.506-.185-3.114.213-4.477-.788-.431-.606-.909-1.185-1.284-1.824-2.342-3.993-1.654-8.208 1.633-10.158 3.276-1.943 8.495-.147 10.53 3.625 2.159 3.999-.979 8.481-6.402 9.145z" clip-rule="evenodd" fill="#60bd64" fill-rule="evenodd"/><path d="M431.717729 64.7978274c-.813.022-1.625.045-2.438.067-2.924.821-5.551-.489-7.529-2.089-2.268-1.834-1.899-4.909-1.025-7.515.542-1.619 1.655-3.045 2.513-4.557l.696-.822c.726 1.229 2.02.646 3.035.914 4.121 1.089 5.64 2.909 5.944 7.333-.113 1.045.143 2.159-.574 3.092-.207 1.192-.414 2.384-.622 3.577z" clip-rule="evenodd" fill="#64be67" fill-rule="evenodd"/><path d="M465.921729 86.3908274c.01-3.17 1.544-4.396 4.865-3.736 2.116.421 4.111 1.543 5.675-1.34.692-1.276 2.732-.97 4.13-.293.723.35 1.663.869 1.541 1.896-.097.809-.92 1.148-1.613 1.365-3.175.993-5.931 2.343-7.261 5.789-.566 1.467-2.144 2.048-3.803 1.456-2.398-.856-3.517-2.629-3.534-5.137z" clip-rule="evenodd" fill="#68c06b" fill-rule="evenodd"/><path d="M444.302729 52.0578274c-.706.951-.496 2.384-1.635 3.109-2.89.465-5.831.666-7.521-2.293-1.104-1.933-.949-4.209.774-5.8 1.842-1.698 3.876-1.088 5.735.271 1.602 1.169 2.263 2.862 2.647 4.713z" clip-rule="evenodd" fill="#79c67c" fill-rule="evenodd"/><path d="M511.778729 133.0768274c.02-.287.039-.574.059-.86.237.064.467.151.689.257 1.741 2.183.409 5.361 2.414 7.458-1.102.677-2.738.498-2.386 2.864.561 3.766-.774 4.931-4.686 5.313-1.279.125-2.739-.561-3.812.711-.426-.717-.852-1.434-1.277-2.151 1.754-1.366.165-3.747 1.584-5.214.157-.191.288-.425.486-.56 3.278-2.223 5.567-4.798 6.929-7.818z" clip-rule="evenodd" fill="#6bc16e" fill-rule="evenodd"/><path d="M437.645729 30.3218274c-1.055.021-2.11.042-3.166.063-2.516-.013-5.031-.026-7.547-.04l-8.259-.021c.883-.667 1.927-.537 2.893-.444 3.243.313 5.765.195 5.876-4.265.059-2.361 2.271-3.314 4.76-3.07 1.284.127 2.511 1.115 3.869.329.55.292.703.793.718 1.367-.836 2.186-3.568 4.637.856 6.081zM494.408729 55.1218274c.008 2.676-2.271 4.673-5.235 4.591-2.997-.083-4.262-1.987-4.205-4.611.06-2.71 1.772-4.292 4.533-4.45 2.7-.155 4.899 1.907 4.907 4.47zM543.280729 64.1178274c1.145-1.934 2.82-2.792 4.971-2.034 2.268.799 3.045 2.803 3.107 4.983.089 3.078-1.597 4.244-5.089 3.754-3.488-2.006-4.042-3.249-2.989-6.703z" clip-rule="evenodd" fill="#6ac16d" fill-rule="evenodd"/><path d="M412.719729 51.3468274h2.266c-2.686 1.111-1.197 3.311-1.324 5.089.376 1.905-.104 2.98-2.283 2.251-.83-.278-1.727-.068-2.525-.45-2.501-.318-3.534-2.181-4.065-4.255-.345-1.349.559-2.32 1.973-2.644 1.985-.534 3.972-.559 5.958.009z" clip-rule="evenodd" fill="#6ac06d" fill-rule="evenodd"/><path d="M514.941729 139.9318274c-1.564-.003-2.539-.531-2.433-2.351.099-1.697.02-3.405.019-5.107.971.101 1.977.074 2.907.327 1.901.518 3.676 1.629 3.597 3.707-.086 2.245-1.79 3.392-4.09 3.424z" clip-rule="evenodd" fill="#66bf6a" fill-rule="evenodd"/><path d="M511.778729 133.0768274c-.217 2.398 1.153 5.444-.719 7.027-1.551 1.312-4.536.257-6.696 1.35-.198-.851-.018-1.843-.903-2.44 2.223-.654 3.838-2.107 5.048-4.006.788-1.235 1.719-2.066 3.27-1.931z" clip-rule="evenodd" fill="#c5e5c6" fill-rule="evenodd"/><path d="M432.339729 61.2208274c-.039-1.073-.373-2.202.574-3.092 1.525.606 2.478-1.171 4.029-.897 1.523.269 3.043.414 3.515 2.104.411 1.474-.485 2.616-1.593 3.482-1.297 1.014-2.488.438-3.722-.313-.867-.53-1.074-2.64-2.803-1.284z" clip-rule="evenodd" fill="#7ac67d" fill-rule="evenodd"/><path d="M543.280729 64.1178274c-.363 2.841 1.368 4.748 2.989 6.704-.195 1.284 1.523 2.513.112 3.833-1.747-.734-3.319-.366-4.77.761-.465-.28-.931-.561-1.396-.84 2.651-3.02.54-6.539 1.025-9.785.681-.225 1.361-.449 2.04-.673z" clip-rule="evenodd" fill="#d6ecd7" fill-rule="evenodd"/><path d="M518.539729 78.1888274c.84-1.137.641-2.501.825-3.783.71 2.735 2.032 3.845 4.573 1.722.202.523.404 1.046.606 1.57 0 .122.015.245 0 .365-.241 1.888 1.137 4.732-1.818 5.173-2.688.401-2.998-2.25-3.483-4.276-.071-.296-.461-.515-.703-.771z" clip-rule="evenodd" fill="#74c577" fill-rule="evenodd"/><path d="M408.852729 58.2368274c1.494-.889 4.338 1.826 4.808-1.801.707.922.518 2.394 2.064 2.842 1.364.396 2.006 1.518 1.406 2.942-.479 1.14-1.063 2.439-2.519 2.452-1.447.012-2.102-1.192-2.533-2.396-.618-1.728-.942-3.654-3.226-4.039z" clip-rule="evenodd" fill="#8acc8c" fill-rule="evenodd"/><path d="M478.684729 96.2278274c-.468 1.075-.591 3.553-2.208 3.431-2.043-.155-2.316-2.7-2.549-4.479-.24-1.833 1.327-2.256 2.762-2.198 1.734.07 2.305 1.233 1.995 3.246z" clip-rule="evenodd" fill="#7cc77f" fill-rule="evenodd"/><path d="M499.951729 69.0018274c1.488.313 1.861 1.542 1.824 2.554-.061 1.684-1.057 3.318-2.689 3.565-1.334.202-2.045-1.527-2.033-2.667.018-1.765 1.553-2.649 2.898-3.452z" clip-rule="evenodd" fill="#80c983" fill-rule="evenodd"/><path d="M534.090729 83.2058274c.063 1.274-.656 1.948-1.789 1.75-1.389-.244-3.396-.254-3.602-1.926-.167-1.361 1.498-2.161 2.816-2.378 1.832-.299 2.086 1.322 2.575 2.554z" clip-rule="evenodd" fill="#78c67b" fill-rule="evenodd"/><path d="M418.965729 22.2098274c1.35.712 3.383 1.067 3.387 2.917.002 1.348-1.691 1.601-2.934 1.541-1.816-.088-2.085-1.477-2.114-2.919-.022-1.046.507-1.608 1.661-1.539z" clip-rule="evenodd" fill="#75c578" fill-rule="evenodd"/><path d="M541.612729 75.4148274c.182-1.062.087-2.353 1.703-2.335 1.266.014 2.854-.522 3.066 1.574-1.159 2.949-2.729 3.33-4.769.761z" clip-rule="evenodd" fill="#6fc272" fill-rule="evenodd"/><path d="M331.000729 204.8928274c-2.561-1.091-2.271-2.272-.113-3.515.485 1.157.381 2.333.113 3.515z" clip-rule="evenodd" fill="#00c4ee" fill-rule="evenodd"/><path d="M412.719729 51.3468274c-1.987-.003-3.974-.006-5.96-.009 1.499-1.617 3.945.149 5.429-1.522.55.381.577.944.531 1.531z" clip-rule="evenodd" fill="#a5d9a6" fill-rule="evenodd"/><path d="M214.364729 199.2628274c-1.492-6.723-2.271-13.507-2.728-20.377-.804-12.114.075-24.217-.464-36.321 0-8.117.135-16.237-.029-24.351-.305-15.064-11.384-27.942-28.267-32.857-13.597-3.958-27.398-3.526-41.204-1.336-8.019 1.272-16.021 2.771-23.155 6.987-6.227 3.681-7.621 7.728-5.231 14.513 1.051 2.984 2.69 5.628 4.582 8.121 4.645 6.121 6.935 6.668 14.035 3.494 8.202-3.666 16.819-5.65 25.779-5.606 11.406.056 17.09 4.741 18.022 14.297.468 4.794-.917 6.844-5.713 7.402-7.558.881-15.187 1.193-22.725 2.203-10.963 1.468-21.275 5.061-29.437 12.755-13.2 12.444-14.74 28.053-10.33 44.59 3.086 11.572 11.232 18.132 22.904 20.595 15.325 3.235 28.882.192 40.737-10.378 5.369-4.787 5.695-4.557 8.272 2.126 1.55 4.023 3.802 7.167 8.424 7.392 6.893.337 13.752-.213 20.357-2.327 5.745-1.838 7.488-4.99 6.171-10.922zm-39.3-34.736c-.095 12.225-11.835 22.491-24.122 21.094-4.498-.512-7.735-3.366-8.904-7.849-1.416-5.431.582-11.255 5.181-14.533 6.143-4.379 13.31-5.339 20.565-5.663 7.271-.323 7.335-.143 7.28 6.951z" fill="#00c4ee"/><path d="M505.705729 79.0968274c1.195-.177 2.459-.46 2.25 1.487-1.025-.079-1.879-.418-2.25-1.487z" clip-rule="evenodd" fill="#f4faf4" fill-rule="evenodd"/></svg>