<?xml version="1.0" encoding="UTF-8" standalone="no"?>
<svg
   xmlns:dc="http://purl.org/dc/elements/1.1/"
   xmlns:cc="http://creativecommons.org/ns#"
   xmlns:rdf="http://www.w3.org/1999/02/22-rdf-syntax-ns#"
   xmlns:svg="http://www.w3.org/2000/svg"
   xmlns="http://www.w3.org/2000/svg"
   xmlns:sodipodi="http://sodipodi.sourceforge.net/DTD/sodipodi-0.dtd"
   xmlns:inkscape="http://www.inkscape.org/namespaces/inkscape"
   id="svg20"
   version="1.1"
   viewBox="0 0 381.07 380.64"
   sodipodi:docname="clubs-logo.svg"
   inkscape:version="0.92.4 (5da689c313, 2019-01-14)">
  <metadata
     id="metadata12">
    <rdf:RDF>
      <cc:Work
         rdf:about="">
        <dc:format>image/svg+xml</dc:format>
        <dc:type
           rdf:resource="http://purl.org/dc/dcmitype/StillImage" />
      </cc:Work>
    </rdf:RDF>
  </metadata>
  <sodipodi:namedview
     pagecolor="#ffffff"
     bordercolor="#666666"
     borderopacity="1"
     objecttolerance="10"
     gridtolerance="10"
     guidetolerance="10"
     inkscape:pageopacity="0"
     inkscape:pageshadow="2"
     inkscape:window-width="1920"
     inkscape:window-height="1009"
     id="namedview10"
     showgrid="false"
     inkscape:zoom="1.2400168"
     inkscape:cx="284.95066"
     inkscape:cy="152.11647"
     inkscape:window-x="-8"
     inkscape:window-y="-8"
     inkscape:window-maximized="1"
     inkscape:current-layer="svg20" />
  <defs
     id="defs4" />
  <g
     id="Layer_2"
     stroke-miterlimit="4"
     data-name="Layer 2"
     display="inline"
     style="display:inline;stroke:#000000;stroke-width:2.79999995;stroke-miterlimit:4;stroke-dasharray:none;stroke-opacity:1">
    <g
       id="Capa_1"
       stroke-miterlimit="4"
       data-name="Capa 1"
       display="inline"
       style="display:inline;stroke:#000000;stroke-width:2.79999995;stroke-miterlimit:4;stroke-dasharray:none;stroke-opacity:1">
      <path
         id="path10"
         stroke-miterlimit="4"
         d="m 377,190.58 v -21.59 a 5.1,5.1 0 0 0 -1.69,-4 Q 296.28,86 217.23,6.91 c -2.06,-2.06 -1.56,-2 -3.6,0.07 q -29,29 -58,58.08 l -94.42,94.57 -1.69,1.69 -0.67,0.69 a 0.77,0.77 0 0 0 0,1.24 l 1.35,1.37 21.8,21.66 c 2,2 2,2 4.13,0 q 64.05,-64 128.08,-128.12 c 2.66,-2.66 3.29,-2.69 5.94,0 q 77.09,77.16 154.22,154.25 c 0.51,0.51 1,1 1.53,1.52 0.23,0.21 0.55,0.52 0.77,0.48 0.49,-0.08 0.4,-0.6 0.41,-1 v -1.68 Q 377.06,201.14 377,190.58 Z"
         class="cls-3"
         display="inline"
         inkscape:connector-curvature="0"
         style="display:inline;fill:#61b44c;fill-opacity:1;stroke:#000000;stroke-width:2.79999995;stroke-miterlimit:4;stroke-dasharray:none;stroke-opacity:1" />
      <path
         id="path12"
         stroke-miterlimit="4"
         d="m 187.48,4.31 c -6.56,0 -13.12,0.09 -19.68,-0.06 a 6.51,6.51 0 0 0 -5.19,2.2 Q 84.59,84.57 6.52,162.62 c -2.23,2.22 -2.3,1.6 0,3.94 l 155.1,155.11 c 0.46,0.45 0.92,0.89 1.36,1.36 0.44,0.47 0.92,0.55 1.41,0 0.49,-0.55 0.8,-0.79 1.19,-1.19 q 10.69,-10.68 21.38,-21.38 c 2.12,-2.14 2.17,-1.58 0,-3.78 q -23.52,-23.49 -47.07,-46.95 c -5.21,-5.2 -10.46,-10.36 -15.67,-15.55 Q 89.48,199.52 54.76,164.83 c -1.91,-1.9 -1.9,-2.47 -0.06,-4.33 Q 60,155.1 65.32,149.74 102,113 138.75,76.21 172.41,42.51 206.11,8.83 c 1.19,-1.18 2.34,-2.41 3.5,-3.63 a 0.92,0.92 0 0 0 0.27,-0.59 c 0,-0.32 -0.34,-0.28 -0.56,-0.29 h -1.68 z"
         class="cls-4"
         display="inline"
         inkscape:connector-curvature="0"
         style="display:inline;fill:#61b44c;fill-opacity:1;stroke:#000000;stroke-width:2.79999995;stroke-miterlimit:4;stroke-dasharray:none;stroke-opacity:1" />
      <path
         id="path14"
         stroke-miterlimit="4"
         d="m 193.64,376.39 c 7.28,0 14.56,-0.06 21.84,0 a 5.58,5.58 0 0 0 4.38,-1.83 Q 296.6,297.77 373.4,221 c 2,-2 2,-2 0,-3.9 l -82,-82 Q 255.08,98.78 218.77,62.48 c -1.91,-1.9 -1.4,-2 -3.41,0 q -9.62,9.57 -19.18,19.17 C 194,84 194,84 196.21,86.2 Q 260,150 323.85,213.77 c 2.82,2.81 3.08,4.57 -0.05,7.7 Q 247.45,297.67 171.21,374 c -0.5,0.51 -1,1 -1.51,1.54 -0.51,0.54 -0.2,0.82 0.42,0.85 0.62,0.03 1.12,0 1.68,0 z"
         class="cls-4"
         display="inline"
         inkscape:connector-curvature="0"
         style="display:inline;fill:#61b44c;fill-opacity:1;stroke:#000000;stroke-width:2.79999995;stroke-miterlimit:4;stroke-dasharray:none;stroke-opacity:1" />
      <path
         id="path16"
         stroke-miterlimit="4"
         d="M 4.24,193.31 V 213.7 A 5.59,5.59 0 0 0 6,218.11 Q 84,296 161.94,374 c 2.05,2.05 1.62,2 3.63,0 L 320,219.58 c 0.39,-0.39 0.78,-0.8 1.18,-1.19 0.4,-0.39 0.61,-0.9 0.07,-1.41 -0.54,-0.51 -0.79,-0.79 -1.19,-1.19 l -19.18,-19.16 c -2.46,-2.45 -1.78,-2.47 -4.3,0.05 q -64.74,64.73 -129.45,129.47 c -2.88,2.88 -3.45,3.31 -6.7,0.06 Q 83.67,249.4 6.87,172.63 c -0.56,-0.56 -1.12,-1.13 -1.71,-1.68 -0.59,-0.55 -0.84,-0.52 -0.9,0.28 v 1.92 z"
         class="cls-3"
         display="inline"
         inkscape:connector-curvature="0"
         style="display:inline;fill:#61b44c;fill-opacity:1;stroke:#000000;stroke-width:2.79999995;stroke-miterlimit:4;stroke-dasharray:none;stroke-opacity:1" />
    </g>
  </g>
</svg>
