<svg xmlns="http://www.w3.org/2000/svg" viewBox="0 0 88.058662 83.491699"><path fill="none" stroke="#000" stroke-width="2.76699996" d="m4.64468 41.89594 31.6665 22.93041 28.89627-20.8805m-28.89627 32.1848 31.8013-22.9555-10.74722-33.68903m-26.21198 0h35.2517l12.31638 37.12543m-5.31151-45.87926H34.26376L22.50577 43.94585M27.53419 1.3835 15.28035 38.51068l28.96744 21.19307M18.11015 1.3835h52.27273l16.05113 49.57385-42.18622 30.8239-42.61491-30.8239z"/><path fill="#e9722a" d="M21.384604 52.236129C13.275283 46.351703 6.5837561 41.480546 6.5145447 41.411335c-.0692114-.069212 2.742001-8.767818 6.2471383-19.330236l6.372978-19.2043988h3.141347c1.815186 0 3.141347.05826 3.141347.1380039 0 .075902-2.664808 8.2109519-5.921796 18.0778879-3.256987 9.866936-5.869312 17.988534-5.805166 18.047997.10404.09644 8.768627 6.436026 22.363526 16.362631 2.595471 1.895139 4.835202 3.554067 4.977178 3.686507.24071.224539.09908.356084-2.097351 1.948085-1.295518.939008-2.456612 1.727534-2.580205 1.75228-.123594.02474-6.859616-4.769539-14.968937-10.653963z"/><path fill="#e9722a" d="M35.342336 62.171701c-3.109476-2.12897-16.430183-11.734934-26.7033967-19.256625l-2.0941085-1.533234.1357209-.462858c.6255833-2.13347 3.9446903-12.282964 9.0685333-27.730663l3.386172-10.2088542h3.061572c1.683865 0 3.085935.024408 3.115712.054241.05955.059662-.05195.4047821-4.680079 14.4856432-5.817908 17.700711-7.058928 21.582138-6.932614 21.682512.126139.100233 8.891925 6.514386 16.390248 11.99317 7.982214 5.832347 10.726416 7.850251 10.954565 8.055264.0496.04457-.0036.166702-.132582.304622-.329706.352423-3.119859 2.389306-4.332306 3.162695-.225083.143575-.240046.136973-1.237437-.545913z"/><path fill="#e9722a" stroke="#e9722a" stroke-width=".51999998" d="M35.603673 62.359821C32.94096 60.551108 12.870657 46.074332 7.3571561 41.985514l-.8126297-.602647.1333642-.46337c.5676374-1.972242 3.8394344-11.982528 8.7604184-26.803098l3.697877-11.1369322h3.061108c1.683609 0 3.08498.023919 3.114159.053153.06151.061628-.155759.7360037-4.325599 13.4260702-5.775386 17.576215-7.340741 22.460767-7.262968 22.66344.04859.126619.36283.358548 13.4062 9.894534 10.363856 7.576998 13.369145 9.781534 13.744388 10.082226l.265165.212483-.220971.237302c-.352948.379032-3.250307 2.502994-4.253335 3.117985l-.320054.196237z"/><path fill="#e9722a" stroke="#e9722a" stroke-width=".04596194" d="M19.489402 39.818957c-1.285325-.939899-2.372387-1.765506-2.415694-1.83468-.05357-.08556 1.768535-5.721086 5.699126-17.626666l5.777867-17.5008927h40.814315L70.3921 6.0386988l1.027084 3.1819805-19.082219.0441941-19.082218.0441942-5.646194 15.9540964c-3.105407 8.774754-5.676795 16.023983-5.714196 16.1094-.05756.131463-.426713-.107008-2.404955-1.553607zM19.9702 62.464287C10.976686 55.952622 3.5479755 50.576465 3.4619554 50.517272c-.1453612-.100027-.0829748-.327055.8838834-3.216514l1.0402838-3.108891L20.765695 55.331631c8.458765 6.12687 15.427607 11.158927 15.486316 11.182349.05871.02342 2.166771-1.4458 4.684582-3.264934 2.517812-1.819135 8.828157-6.379221 14.022991-10.133523 5.194833-3.754302 9.453975-6.813794 9.464759-6.798871.02859.03956 1.993933 6.230546 1.993933 6.281041 0 .04789-29.935742 21.668587-30.03363 21.691398-.03443.008-7.420932-5.313138-16.414446-11.824804z"/><path fill="#e9722a" stroke="#e9722a" stroke-width=".04596194" d="m73.445474 36.179125-6.002569-18.075417h-17.13878c-13.673981 0-17.130486-.02234-17.097751-.110485.02257-.06077.494174-1.392976 1.048019-2.960465l1.006991-2.849979 18.561553-.000124 18.561553-.000124 6.168658 19.069365c3.392762 10.48815 6.167051 19.096319 6.165087 19.129262-.0032.0541-5.170703 3.873384-5.240681 3.873384-.01623 0-2.730667-8.133937-6.03208-18.075417z"/><path fill="#e9722a" stroke="#e9722a" stroke-width=".04596194" d="M41.519421 78.053542c-1.468052-1.057586-2.669117-1.942771-2.669034-1.967078.000124-.0362 30.490318-22.058824 30.836681-22.272889.0771-.04765-1.317738-4.531914-5.062281-16.274732-2.842788-8.914928-5.196049-16.298979-5.229469-16.409002l-.06076-.200041 3.029652.02326 3.029651.02326 5.812705 17.500893c3.196987 9.625491 5.804023 17.528461 5.793413 17.562155-.01061.03369-1.888706 1.426663-4.173544 3.095488-2.284839 1.668824-9.610586 7.020984-16.279437 11.893689-6.668851 4.872705-12.177655 8.879356-12.241786 8.903668-.06413.02431-1.317735-.821093-2.785788-1.87868z"/><path fill="none" stroke="#e9722a" stroke-width=".09192388" d="M42.01384 56.174014c-1.68631-1.209867-17.422515-12.676523-17.573016-12.805101-.09178-.07841.551045-1.952103 4.510154-13.146162l3.219898-9.103999h24.153081l3.507294 11.023521c1.92901 6.062937 3.472087 11.11433 3.429058 11.225319-.07594.195887-18.897498 13.863638-19.285231 14.004462-.106409.03865-.988966-.500471-1.961238-1.19804z"/><path fill="none" stroke="#e9722a" stroke-width=".09192388" d="M42.720947 56.70363c-.583364-.404218-4.003993-2.882008-7.601398-5.506204-3.597406-2.624195-7.475445-5.44994-8.617864-6.279433-1.14242-.829493-2.077126-1.600284-2.077126-1.712869 0-.168021 3.135909-9.156052 6.965775-19.965052l.75163-2.12132 12.095394-.04443 12.095394-.04443 2.872621 9.060046c1.579944 4.983025 3.167687 10.004881 3.52832 11.159681l.655698 2.099636-.523116.420927c-1.013881.815815-18.610725 13.498143-18.846138 13.582706-.131191.047123-.715827-.245042-1.29919-.649258Z"/><path fill="none" stroke="#e9722a" stroke-width=".09192388" d="M41.131875 55.594552C38.642716 53.814303 25.676131 44.3553 24.788868 43.672481c-.412266-.317272-.421174-.365594-.203011-1.101344.26948-.908816 7.019166-20.128657 7.362995-20.96625l.235841-.574524h24.177043l2.317962 7.292039c3.864729 12.157999 4.670764 14.812337 4.574328 15.063639-.129759.338149-19.045334 14.060321-19.381701 14.060321-.08318 0-1.31638-.833314-2.74045-1.85181z"/></svg>